<?xml version="1.0" encoding="UTF-8"?>
<!DOCTYPE svg PUBLIC "-//W3C//DTD SVG 1.1//EN" "http://www.w3.org/Graphics/SVG/1.1/DTD/svg11.dtd">
<!-- Creator: CorelDRAW X6 -->
<svg xmlns="http://www.w3.org/2000/svg" xml:space="preserve" width="5in" height="4.69444in" version="1.1" style="shape-rendering:geometricPrecision; text-rendering:geometricPrecision; image-rendering:optimizeQuality; fill-rule:evenodd; clip-rule:evenodd"
viewBox="0 0 5000 4694"
 xmlns:xlink="http://www.w3.org/1999/xlink">
 <defs>
  <style type="text/css">
   <![CDATA[
    .fil1 {fill:#292929;fill-rule:nonzero}
    .fil0 {fill:#292929;fill-rule:nonzero}
   ]]>
  </style>
 </defs>
 <g id="Layer_x0020_1">
  <metadata id="CorelCorpID_0Corel-Layer"/>
  <path class="fil0" d="M2531 4643c-13,0 -25,0 -37,-1l0 0c-8,1 -16,1 -24,1 -290,0 -476,-132 -656,-259 -124,-88 -242,-171 -380,-194 -67,-11 -135,-17 -199,-17 -117,0 -209,18 -276,31 -41,8 -76,15 -103,15 -28,0 -58,-6 -72,-51 -11,-39 -20,-77 -28,-113 -21,-94 -35,-152 -75,-158 -460,-71 -592,-168 -621,-237 -4,-10 -7,-20 -7,-29 -1,-26 17,-50 43,-54 707,-116 1024,-839 1038,-870 0,-1 1,-2 1,-3 43,-88 52,-164 25,-226 -49,-114 -207,-165 -312,-198 -26,-8 -50,-16 -69,-23 -209,-83 -226,-168 -218,-211 14,-74 112,-125 192,-125 22,0 41,4 57,11 94,44 179,66 252,66 101,0 145,-42 151,-48 -3,-48 -6,-98 -9,-149 -21,-334 -47,-750 59,-987 317,-711 989,-766 1188,-766 5,0 87,-1 87,-1l12 0c199,0 873,55 1190,767 106,237 80,653 59,987l-1 15c-3,47 -6,92 -8,135 5,5 46,44 137,48l0 0c70,-3 150,-25 237,-66 26,-12 54,-15 74,-15 30,0 60,6 85,16l2 1c71,25 118,75 119,127 1,49 -36,123 -220,195 -19,7 -43,15 -69,23 -105,33 -263,84 -312,198 -27,62 -18,138 25,226 0,1 1,2 1,3 13,31 330,753 1038,870 26,4 45,28 43,54 -1,10 -3,20 -7,30 -29,68 -161,165 -621,236 -38,6 -52,55 -75,158 -8,37 -16,74 -28,113 -10,34 -31,49 -66,49l-6 0c-24,0 -59,-4 -103,-13 -78,-15 -165,-29 -276,-29 -65,0 -132,6 -200,17 -138,23 -255,106 -379,194 -180,128 -367,259 -657,259z"/>
  <path class="fil1" d="M2540 -5l0 0 -3 0 0 0c0,0 -80,1 -87,1 -206,0 -905,57 -1235,797 -111,249 -84,671 -63,1011 3,40 5,82 7,122 -17,9 -48,21 -97,21 -65,0 -143,-21 -230,-61 -23,-11 -50,-16 -79,-16 -102,0 -224,67 -243,167 -14,72 19,177 250,269 21,8 46,16 73,25 96,30 240,76 280,169 20,48 12,110 -24,183 -1,2 -2,3 -2,5 -13,30 -319,727 -998,839 -52,9 -90,55 -87,108 1,16 5,31 11,47 51,119 266,207 658,267 13,18 27,80 35,118 8,38 17,76 29,117 12,40 42,88 121,88 32,0 69,-7 113,-16 65,-13 155,-30 266,-30 62,0 126,5 191,16 126,21 234,97 358,185 178,126 380,268 686,268l1 0c8,0 16,0 24,-1 10,0 22,1 35,1l1 0c307,0 508,-143 686,-268 125,-88 232,-164 358,-185 65,-11 129,-16 191,-16 107,0 191,14 266,28 47,9 85,14 113,14l3 0 3 0c58,0 99,-31 116,-87 12,-40 20,-78 29,-116 8,-38 22,-100 35,-118 392,-61 607,-148 658,-267 7,-15 10,-31 11,-47 3,-53 -34,-99 -87,-108 -680,-112 -986,-810 -998,-839 -1,-2 -1,-3 -2,-5 -36,-74 -44,-135 -24,-183 39,-92 184,-138 279,-169 27,-9 52,-17 73,-25 169,-67 255,-149 253,-244 -1,-75 -60,-141 -152,-175l0 0c-31,-13 -68,-20 -104,-20 -25,0 -61,3 -96,19 -81,38 -153,58 -216,61 -41,-2 -69,-12 -84,-21 2,-34 4,-70 7,-107l1 -14c21,-340 48,-763 -63,-1012 -327,-732 -1016,-796 -1231,-797l-15 0zm9 104c188,0 837,51 1143,736 101,226 75,634 54,963 -3,52 -6,103 -9,151l-1 21 14 15c6,6 58,61 174,65l2 0 2 0c77,-3 164,-27 258,-71 14,-7 32,-10 52,-10 22,0 46,4 65,12l3 1c49,17 84,50 85,79 0,17 -12,77 -187,146 -17,7 -40,14 -66,22 -114,36 -286,91 -344,227 -33,77 -24,168 26,269 21,48 346,780 1077,901 0,3 -1,7 -3,12 -12,29 -91,130 -581,206 -77,12 -96,98 -117,198 -8,36 -16,72 -27,109 -3,11 -4,12 -16,12 -2,0 -4,0 -6,0l0 0c-22,0 -55,-5 -93,-12 -69,-14 -165,-30 -286,-30 -68,0 -138,6 -208,18 -150,25 -272,111 -401,203 -173,123 -353,249 -626,249 -12,0 -24,0 -35,-1l-3 0 -3 0c-7,1 -13,1 -20,1 -274,0 -453,-127 -626,-249 -129,-91 -251,-178 -401,-203 -70,-12 -140,-18 -208,-18 -122,0 -217,19 -286,32 -38,8 -71,14 -93,14 -18,0 -18,-1 -22,-14 -11,-37 -19,-74 -27,-110 -22,-100 -41,-186 -117,-198 -490,-76 -569,-177 -581,-206 -2,-5 -3,-8 -3,-12 731,-120 1056,-852 1077,-901 50,-102 59,-193 27,-269 -58,-136 -230,-191 -344,-227 -26,-8 -49,-15 -66,-22 -148,-58 -193,-117 -186,-153 8,-41 79,-83 141,-83 14,0 26,2 35,7 101,47 193,71 274,71 127,0 184,-59 190,-66l14 -15 -1 -21c-3,-48 -6,-99 -9,-151 -21,-328 -46,-737 54,-963 305,-683 950,-735 1141,-735 5,0 88,-1 88,-1 4,0 7,0 11,0z"/>
 </g>
</svg>
